# xmcd
#
# Track frame offsets: 
#        150
#        18819
#        37294
#        58311
#        76216
#        98958
#        118573
#        138847
#        155235
#
# Disc length: 2398 seconds
#
# Revision: 0
# Processed by: cddbd v1.5.2PL0 Copyright (c) Steve Scherf et al.
# Submitted via: ExactAudioCopy v0.99pb4
#
DISCID=76095c09
DTITLE=P. Ann Everson-Price - Killer Love
DYEAR=2004
DGENRE=R&B
TTITLE0=Keep The Lies Comin' On
TTITLE1=Piece Of My Heart
TTITLE2=Try A Little Tenderness
TTITLE3=The Lord Will Make A Way
TTITLE4=I've Forgotten You
TTITLE5=Fire
TTITLE6=Killer Love
TTITLE7=Love The One You're With
TTITLE8=Some Kind Of Wonderful
EXTD=
EXTT0=
EXTT1=
EXTT2=
EXTT3=
EXTT4=
EXTT5=
EXTT6=
EXTT7=
EXTT8=
PLAYORDER=
